<?xml version="1.0" encoding="UTF-8"?>
<svg xmlns="http://www.w3.org/2000/svg" xmlns:xlink="http://www.w3.org/1999/xlink" width="50px" height="62px" viewBox="0 0 50 61" version="1.1">
<g id="surface1">
<path style=" stroke:none;fill-rule:evenodd;fill:rgb(44.313725%,30.196078%,21.960784%);fill-opacity:1;" d="M 16.238281 0.425781 C 16.167969 0.492188 16.195312 2.375 16.273438 2.804688 C 16.410156 3.589844 16.765625 4.175781 17.351562 4.59375 C 17.527344 4.71875 18.855469 6.050781 18.828125 6.074219 C 18.730469 6.171875 18.050781 5.660156 17.703125 5.226562 C 17.410156 4.859375 17.324219 4.84375 17.421875 5.175781 C 17.59375 5.730469 18.816406 6.679688 19.359375 6.679688 C 19.480469 6.679688 19.703125 6.914062 19.667969 7 C 19.535156 7.34375 20.320312 7.914062 21.125 8.066406 C 21.65625 8.164062 21.679688 8.210938 21.199219 8.210938 C 20.554688 8.210938 20.015625 8.0625 19.871094 7.847656 C 19.824219 7.777344 19.765625 7.722656 19.738281 7.722656 C 19.710938 7.722656 19.625 7.648438 19.542969 7.558594 L 19.402344 7.398438 L 19.402344 7.582031 C 19.398438 7.824219 19.71875 8.097656 20.300781 8.351562 C 20.765625 8.554688 20.847656 8.617188 20.699219 8.671875 C 20.507812 8.742188 20.632812 8.945312 20.976562 9.132812 C 21.125 9.214844 21.121094 9.214844 20.800781 9.179688 L 20.476562 9.148438 L 20.667969 9.296875 C 20.839844 9.433594 21.015625 9.511719 21.425781 9.632812 C 21.53125 9.664062 21.574219 9.710938 21.574219 9.78125 C 21.574219 9.839844 21.621094 9.9375 21.675781 10 L 21.773438 10.109375 L 21.25 10.078125 C 19.765625 9.988281 19.464844 9.988281 18.785156 10.066406 C 17.960938 10.164062 17.277344 10.316406 16.5 10.585938 C 15.859375 10.804688 15.828125 10.800781 15.78125 10.46875 C 15.621094 9.296875 14.660156 9.066406 11.125 9.34375 C 10.382812 9.402344 9.449219 9.476562 9.050781 9.503906 C 4.984375 9.804688 3.457031 10.445312 2.464844 12.273438 C 1.859375 13.386719 1.617188 15.199219 1.84375 16.902344 C 1.980469 17.941406 2.019531 18.183594 2.183594 19.078125 C 2.332031 19.910156 2.621094 21.441406 2.746094 22.074219 C 2.773438 22.195312 2.816406 22.441406 2.851562 22.617188 C 2.882812 22.796875 2.925781 23.027344 2.949219 23.136719 C 2.972656 23.246094 3.050781 23.738281 3.121094 24.226562 C 3.386719 26.078125 3.503906 26.597656 3.796875 27.199219 C 4.53125 28.699219 5.886719 29.101562 7.324219 28.238281 C 7.949219 27.863281 8.113281 27.902344 8.300781 28.460938 C 8.777344 29.867188 9.894531 30.6875 11.542969 30.835938 C 12.09375 30.882812 12.3125 30.875 13.296875 30.75 C 14.394531 30.613281 15.824219 30.910156 17.359375 31.585938 C 18.019531 31.878906 18.371094 32.585938 17.90625 32.6875 C 17.730469 32.726562 17.53125 32.929688 17.425781 33.171875 C 17.210938 33.683594 17.613281 34.003906 18.027344 33.648438 C 18.480469 33.253906 18.46875 34.207031 18.003906 35.90625 C 17.820312 36.574219 17.15625 38.308594 16.753906 39.171875 C 16.640625 39.417969 16.472656 39.773438 16.386719 39.964844 C 14.777344 43.414062 13.304688 44.878906 10.542969 45.757812 C 7.941406 46.589844 5.882812 47.480469 4.902344 48.199219 C 1.429688 50.753906 1.035156 53.960938 3.75 57.558594 C 4.152344 58.089844 4.65625 58.773438 4.871094 59.082031 C 5.304688 59.691406 5.582031 60.035156 5.652344 60.035156 C 5.859375 60.035156 5.308594 59.039062 4.121094 57.261719 C 3.097656 55.730469 2.828125 55.078125 2.675781 53.773438 C 2.445312 51.769531 3.125 50.355469 5.023438 48.902344 C 6.101562 48.078125 7.195312 47.585938 10.648438 46.375 C 12.757812 45.632812 13.769531 44.941406 15.007812 43.378906 C 16.152344 41.933594 17.941406 38.054688 18.546875 35.695312 C 18.882812 34.386719 18.882812 33.839844 18.542969 33.023438 C 18.449219 32.792969 18.523438 32.695312 18.820312 32.664062 C 19.226562 32.617188 19.277344 32.324219 18.933594 32 L 18.71875 31.796875 L 18.660156 31.226562 C 18.625 30.917969 18.566406 30.550781 18.523438 30.417969 C 18.296875 29.679688 18.867188 27.761719 19.679688 26.519531 C 19.917969 26.152344 20.003906 26.109375 20.085938 26.316406 C 20.136719 26.449219 20.140625 26.445312 20.144531 26.242188 C 20.152344 25.960938 20.25 25.753906 20.476562 25.523438 C 20.707031 25.296875 20.742188 25.320312 20.804688 25.765625 C 20.863281 26.203125 20.945312 26.441406 21.015625 26.414062 C 21.085938 26.390625 21.074219 26.042969 20.992188 25.644531 C 20.921875 25.289062 20.992188 25.21875 21.195312 25.4375 C 21.617188 25.878906 21.441406 26.691406 20.859375 27.015625 C 20.742188 27.078125 20.648438 27.152344 20.648438 27.175781 C 20.648438 27.234375 20.449219 27.527344 20.375 27.578125 C 20.289062 27.640625 20.335938 28.6875 20.449219 29.199219 C 20.507812 29.460938 20.574219 29.773438 20.597656 29.894531 C 20.734375 30.613281 21.46875 32.339844 21.953125 33.074219 C 22.25 33.527344 22.214844 34.234375 21.84375 35.304688 C 21.691406 35.75 21.683594 35.980469 21.824219 35.980469 C 22.144531 35.980469 22.804688 36.472656 23.042969 36.886719 C 23.617188 37.878906 23.511719 39.078125 22.753906 40.238281 C 22.3125 40.914062 22.277344 41.78125 22.664062 42.539062 C 22.925781 43.058594 23.242188 43.308594 24.082031 43.65625 C 25.253906 44.140625 25.660156 44.632812 25.25 45.066406 C 24.992188 45.335938 24.515625 45.136719 24.574219 44.785156 C 24.613281 44.558594 24.519531 44.523438 24.351562 44.703125 C 24.027344 45.046875 24.4375 45.582031 25.027344 45.582031 C 25.78125 45.582031 26.066406 44.609375 25.492188 44.003906 C 25.257812 43.757812 24.941406 43.578125 24.351562 43.351562 C 22.832031 42.773438 22.367188 41.695312 23.105469 40.453125 C 24.234375 38.5625 23.773438 36.339844 22.148438 35.855469 C 21.953125 35.796875 21.953125 35.75 22.113281 35.292969 C 22.28125 34.824219 22.328125 34.625 22.398438 34.160156 C 22.425781 33.960938 22.472656 33.824219 22.527344 33.785156 C 22.597656 33.730469 22.601562 33.703125 22.550781 33.605469 C 22.515625 33.542969 22.460938 33.171875 22.421875 32.78125 C 22.371094 32.203125 22.335938 32.023438 22.234375 31.832031 C 22.167969 31.707031 22.097656 31.546875 22.074219 31.476562 C 22.003906 31.246094 21.503906 30.238281 21.347656 30.011719 C 20.90625 29.382812 20.675781 28.664062 20.707031 28.035156 L 20.726562 27.65625 L 21.125 27.289062 C 21.714844 26.746094 21.675781 26.75 21.769531 27.285156 C 21.816406 27.535156 21.875 27.875 21.902344 28.039062 C 22.164062 29.5 22.761719 31.507812 23.058594 31.929688 C 23.109375 32.003906 23.148438 32.074219 23.148438 32.09375 C 23.148438 32.136719 23.753906 33.339844 23.921875 33.628906 C 25.066406 35.59375 26.609375 37.625 26.785156 37.40625 C 26.867188 37.304688 26.808594 37.207031 25.972656 36.054688 C 24.949219 34.648438 24.449219 33.882812 24.027344 33.085938 C 23.585938 32.257812 23.398438 31.910156 23.34375 31.84375 C 23.140625 31.589844 22.476562 29.628906 22.300781 28.753906 C 22.273438 28.632812 22.164062 28.097656 22.050781 27.566406 C 21.902344 26.851562 21.851562 26.484375 21.851562 26.148438 C 21.851562 25.75 21.832031 25.660156 21.703125 25.390625 C 21.554688 25.078125 21.535156 24.699219 21.648438 24.425781 C 21.671875 24.371094 21.703125 24.253906 21.71875 24.164062 C 21.78125 23.816406 22.25 23.34375 22.25 23.628906 C 22.25 23.945312 22.527344 25.179688 22.585938 25.125 C 22.601562 25.109375 22.582031 24.695312 22.546875 24.207031 C 22.460938 23.007812 22.464844 22.996094 23.121094 22.023438 C 24.011719 20.710938 24.398438 20.3125 24.398438 20.710938 C 24.398438 21 24.480469 21.039062 24.527344 20.773438 C 24.59375 20.375 24.921875 19.96875 25.300781 19.808594 C 25.425781 19.753906 25.695312 19.605469 25.902344 19.480469 C 26.320312 19.222656 27.449219 18.765625 28.558594 18.410156 C 29.65625 18.054688 30.554688 17.605469 31.277344 17.050781 C 31.617188 16.789062 31.644531 16.785156 31.945312 16.957031 C 32.894531 17.5 35.15625 20.054688 34.851562 20.242188 C 34.769531 20.292969 34.828125 20.394531 35.140625 20.753906 C 35.449219 21.105469 35.621094 21.65625 35.757812 22.734375 C 35.816406 23.1875 35.8125 23.25 35.636719 24.335938 C 35.535156 24.957031 35.445312 25.554688 35.4375 25.660156 C 35.425781 25.835938 35.410156 25.863281 35.28125 25.882812 C 34.742188 25.976562 35.25 27.066406 36.078125 27.597656 C 37.230469 28.332031 37.34375 28.78125 36.640625 29.808594 C 36.394531 30.167969 36.335938 30.191406 36.132812 30.003906 C 35.839844 29.726562 35.664062 29.6875 35.367188 29.824219 C 34.792969 30.097656 35.027344 30.734375 35.703125 30.734375 C 35.863281 30.734375 36.007812 30.753906 36.023438 30.777344 C 36.054688 30.832031 36.195312 31.421875 36.234375 31.671875 L 36.261719 31.839844 L 36.007812 31.808594 C 35.636719 31.765625 34.976562 31.890625 34.730469 32.054688 C 33.6875 32.726562 33.09375 33.566406 33.910156 33.210938 C 34.640625 32.890625 35.511719 32.910156 35.695312 33.253906 C 35.757812 33.367188 36.105469 33.578125 36.308594 33.625 C 36.425781 33.652344 36.445312 33.6875 36.496094 33.96875 C 36.632812 34.757812 36.367188 34.871094 35.410156 34.425781 C 34.820312 34.152344 34.398438 34.113281 34.6875 34.359375 C 34.820312 34.472656 35.652344 34.933594 35.84375 34.996094 C 35.992188 35.046875 36.007812 35.070312 35.984375 35.207031 C 35.953125 35.433594 35.800781 36.355469 35.742188 36.699219 C 35.542969 37.882812 34.515625 38.464844 33.140625 38.183594 C 32.601562 38.070312 31.15625 37.621094 30.925781 37.492188 C 30.777344 37.40625 30.605469 37.371094 30.25 37.34375 C 29.269531 37.273438 28.800781 37.539062 28.136719 38.53125 C 27.09375 40.097656 27.164062 41.074219 28.324219 41.121094 C 28.773438 41.140625 28.769531 41.140625 29.976562 40.839844 C 32.960938 40.101562 35.925781 39.542969 36.863281 39.546875 C 38.769531 39.546875 40.300781 40.855469 42.605469 44.453125 C 44.785156 47.847656 46.078125 50.777344 47.191406 54.8125 C 47.558594 56.140625 47.699219 56.703125 47.957031 57.808594 C 48.359375 59.550781 48.601562 60.238281 48.753906 60.035156 C 48.914062 59.816406 48.632812 57.964844 48.175781 56.199219 C 47.582031 53.921875 47.257812 52.824219 46.839844 51.695312 C 46.730469 51.394531 46.59375 51.027344 46.539062 50.878906 C 45.484375 47.960938 42.808594 43.335938 40.988281 41.277344 C 39.527344 39.621094 38.066406 38.902344 36.476562 39.050781 C 35.597656 39.132812 33.046875 39.625 31.898438 39.9375 C 30.566406 40.296875 30.175781 40.394531 29.488281 40.558594 C 28.4375 40.808594 28.027344 40.789062 27.898438 40.480469 C 27.664062 39.921875 28.742188 38.039062 29.472656 37.734375 C 29.847656 37.582031 30.375 37.683594 31.273438 38.078125 C 32.457031 38.597656 33.601562 38.757812 34.398438 38.511719 C 35.609375 38.140625 35.941406 37.6875 36.199219 36.03125 C 36.304688 35.359375 36.382812 35.160156 36.601562 34.984375 C 36.875 34.765625 36.9375 34.550781 36.851562 34.097656 C 36.789062 33.769531 36.789062 33.71875 36.921875 33.152344 C 37.101562 32.382812 37.085938 32.066406 36.863281 31.878906 C 36.507812 31.582031 36.3125 30.675781 36.554688 30.457031 C 36.789062 30.25 37.339844 29.394531 37.402344 29.144531 C 37.554688 28.511719 37.269531 27.976562 36.460938 27.386719 C 36.019531 27.0625 36.019531 27.066406 36.4375 27.101562 C 37.25 27.171875 37.800781 26.476562 37.230469 26.105469 C 37.152344 26.058594 36.925781 26.019531 36.546875 26 C 36.222656 25.980469 35.960938 25.945312 35.9375 25.914062 C 35.878906 25.824219 35.894531 25.203125 35.976562 24.621094 C 36.140625 23.402344 36.128906 22.734375 35.914062 21.660156 L 35.828125 21.222656 L 35.964844 21.125 C 36.566406 20.691406 36.296875 19.226562 35.417969 18.152344 C 34.910156 17.527344 34.167969 17.066406 33.226562 16.785156 C 31.941406 16.40625 31.96875 16.417969 32.128906 16.195312 C 32.476562 15.703125 32.699219 15.167969 32.902344 14.347656 C 33.359375 12.460938 34.316406 10.4375 34.902344 10.121094 C 35.050781 10.039062 35.308594 9.835938 35.476562 9.667969 C 36.066406 9.0625 37.445312 8.824219 40.25 8.84375 C 41.488281 8.851562 41.609375 8.84375 41.453125 8.78125 C 41.023438 8.601562 40.441406 8.5625 38.042969 8.5625 C 35.378906 8.5625 35.429688 8.570312 34.574219 8.117188 C 32.957031 7.265625 31.691406 7.730469 30.761719 9.507812 C 30.472656 10.0625 30.164062 10.542969 30.101562 10.542969 C 30.074219 10.542969 29.992188 10.601562 29.921875 10.675781 L 29.785156 10.808594 L 29.667969 10.671875 L 29.550781 10.539062 L 29.726562 10.363281 C 29.90625 10.183594 29.929688 10.082031 29.792969 10.058594 C 29.746094 10.046875 29.71875 10.078125 29.722656 10.132812 C 29.722656 10.179688 29.703125 10.226562 29.675781 10.230469 C 29.648438 10.238281 29.625 10.199219 29.625 10.144531 C 29.621094 9.996094 29.535156 10.011719 29.449219 10.175781 C 29.410156 10.253906 29.367188 10.328125 29.363281 10.339844 C 29.335938 10.382812 28.882812 9.917969 28.378906 9.328125 C 28.027344 8.917969 27.835938 8.730469 27.753906 8.722656 C 27.679688 8.714844 27.296875 8.390625 26.703125 7.828125 C 24.65625 5.894531 23.480469 5.160156 20.660156 4.0625 C 18.695312 3.296875 17.285156 2.132812 16.324219 0.472656 C 16.296875 0.425781 16.257812 0.40625 16.238281 0.425781 M 16.488281 1.050781 C 16.523438 1.082031 16.550781 1.183594 16.550781 1.273438 C 16.550781 1.574219 17.238281 2.410156 17.992188 3.035156 C 18.496094 3.449219 18.550781 3.496094 18.550781 3.535156 C 18.550781 3.585938 18.355469 3.566406 18.324219 3.515625 C 18.308594 3.488281 18.25 3.464844 18.195312 3.464844 C 18.144531 3.464844 18.101562 3.441406 18.101562 3.414062 C 18.101562 3.386719 18.078125 3.367188 18.050781 3.367188 C 18.023438 3.367188 17.871094 3.285156 17.714844 3.1875 C 17.449219 3.023438 17.4375 3.019531 17.578125 3.148438 C 17.738281 3.296875 17.753906 3.308594 18.34375 3.644531 C 18.546875 3.761719 18.761719 3.898438 18.820312 3.949219 C 19.050781 4.15625 19.585938 4.40625 19.78125 4.398438 C 19.953125 4.394531 20.183594 4.460938 20.6875 4.660156 C 20.777344 4.695312 20.851562 4.753906 20.851562 4.785156 C 20.851562 4.894531 20.527344 4.859375 20.257812 4.726562 C 20.023438 4.609375 19.867188 4.5625 19.976562 4.640625 C 20.003906 4.660156 20.050781 4.722656 20.082031 4.777344 C 20.109375 4.832031 20.199219 4.886719 20.28125 4.902344 C 20.359375 4.914062 20.527344 4.976562 20.648438 5.035156 C 20.773438 5.09375 21.109375 5.210938 21.398438 5.296875 C 21.6875 5.382812 22.054688 5.507812 22.214844 5.574219 C 22.375 5.636719 22.542969 5.691406 22.589844 5.691406 C 22.695312 5.695312 22.878906 5.828125 22.835938 5.871094 C 22.816406 5.890625 22.648438 5.859375 22.464844 5.800781 C 22.277344 5.746094 21.980469 5.660156 21.800781 5.617188 C 21.621094 5.574219 21.296875 5.480469 21.074219 5.417969 C 20.5 5.242188 19.855469 5.105469 19.402344 5.054688 C 19.085938 5.019531 18.933594 4.972656 18.664062 4.824219 C 17.847656 4.371094 17.71875 4.308594 17.589844 4.308594 C 17.082031 4.300781 16.351562 2.554688 16.351562 1.332031 C 16.351562 0.992188 16.375 0.9375 16.488281 1.050781 M 22.289062 5.230469 C 22.644531 5.394531 22.789062 5.523438 22.65625 5.554688 C 22.605469 5.570312 22.511719 5.539062 22.445312 5.488281 C 22.378906 5.4375 22.277344 5.394531 22.21875 5.394531 C 22.089844 5.394531 21.835938 5.207031 21.878906 5.144531 C 21.921875 5.074219 21.980469 5.085938 22.289062 5.230469 M 23.738281 6.441406 C 24.371094 6.640625 24.691406 6.839844 25.339844 7.445312 C 25.679688 7.761719 26.039062 8.078125 26.140625 8.152344 C 26.242188 8.226562 26.550781 8.496094 26.828125 8.757812 C 28.574219 10.394531 29.109375 10.875 29.40625 11.070312 C 29.515625 11.140625 29.691406 11.320312 29.796875 11.472656 C 29.902344 11.621094 30.046875 11.777344 30.117188 11.824219 C 30.1875 11.867188 30.3125 11.992188 30.398438 12.101562 C 30.484375 12.210938 30.636719 12.34375 30.738281 12.398438 C 30.890625 12.476562 30.929688 12.53125 30.941406 12.664062 C 30.960938 12.875 30.871094 12.980469 30.777344 12.855469 C 30.699219 12.75 30.550781 12.742188 30.550781 12.839844 C 30.550781 12.960938 30.4375 12.988281 30.367188 12.886719 C 30.289062 12.78125 29.769531 12.21875 29.3125 11.753906 C 29.140625 11.578125 28.96875 11.355469 28.929688 11.261719 C 28.886719 11.164062 28.820312 11.085938 28.78125 11.085938 C 28.742188 11.085938 28.699219 11.058594 28.683594 11.023438 C 28.667969 10.976562 28.648438 10.976562 28.597656 11.023438 C 28.492188 11.121094 28.308594 11.097656 28.230469 10.976562 C 28.175781 10.890625 28 10.316406 28 10.226562 C 28 10.21875 27.921875 10.222656 27.824219 10.234375 C 27.613281 10.261719 27.523438 10.195312 27.480469 9.992188 C 27.445312 9.8125 27.371094 9.839844 27.324219 10.050781 C 27.257812 10.355469 26.863281 10.144531 26.785156 9.757812 C 26.722656 9.460938 26.425781 9.234375 26.390625 9.460938 C 26.339844 9.792969 25.984375 9.445312 25.777344 8.863281 C 25.632812 8.441406 25.148438 7.820312 24.96875 7.820312 C 24.871094 7.820312 24.878906 7.835938 25.101562 8.054688 C 25.425781 8.375 25.375 8.527344 25.046875 8.226562 C 24.933594 8.125 24.691406 7.964844 24.507812 7.871094 C 24.144531 7.679688 23.960938 7.460938 24.101562 7.375 C 24.160156 7.335938 24.132812 7.289062 23.941406 7.117188 C 23.578125 6.785156 23.289062 6.445312 23.324219 6.386719 C 23.367188 6.320312 23.351562 6.316406 23.738281 6.441406 M 33.769531 8.175781 C 33.828125 8.207031 34.003906 8.316406 34.160156 8.421875 C 34.316406 8.527344 34.601562 8.691406 34.796875 8.785156 C 35.140625 8.957031 35.203125 9.019531 35.101562 9.082031 C 35.074219 9.097656 35.050781 9.164062 35.050781 9.230469 C 35.050781 9.296875 35.074219 9.363281 35.101562 9.378906 C 35.207031 9.445312 35.140625 9.546875 34.960938 9.605469 C 34.859375 9.636719 34.695312 9.707031 34.601562 9.757812 C 34.503906 9.808594 34.359375 9.847656 34.273438 9.847656 C 34.105469 9.847656 33.980469 9.921875 33.648438 10.214844 C 33.523438 10.328125 33.34375 10.484375 33.25 10.5625 C 33.152344 10.648438 33.105469 10.71875 33.140625 10.726562 C 33.25 10.765625 33.203125 10.886719 32.75 11.808594 C 32.503906 12.308594 32.300781 12.742188 32.300781 12.773438 C 32.300781 12.800781 32.246094 12.941406 32.183594 13.082031 C 32.117188 13.222656 32.027344 13.464844 31.980469 13.617188 C 31.863281 14.011719 31.203125 14.945312 31.042969 14.945312 C 30.898438 14.945312 30.90625 14.746094 31.054688 14.578125 C 31.230469 14.378906 31.210938 14.355469 31.007812 14.503906 L 30.867188 14.605469 L 30.605469 14.476562 C 30.355469 14.351562 30.226562 14.203125 30.332031 14.167969 C 30.40625 14.144531 30.832031 13.875 31.25 13.59375 C 31.648438 13.320312 31.738281 13.117188 31.453125 13.117188 C 31.371094 13.117188 31.289062 13.089844 31.273438 13.0625 C 31.203125 12.949219 31.355469 12.894531 31.675781 12.910156 L 32 12.925781 L 32 12.761719 C 31.996094 12.5625 31.828125 12.175781 31.738281 12.167969 C 31.507812 12.148438 31.351562 12.15625 31.351562 12.1875 C 31.351562 12.261719 31.234375 12.222656 31.078125 12.089844 C 30.988281 12.015625 30.878906 11.929688 30.832031 11.902344 C 30.785156 11.875 30.734375 11.765625 30.714844 11.65625 C 30.699219 11.546875 30.644531 11.371094 30.59375 11.261719 C 30.460938 10.988281 30.46875 10.96875 30.753906 10.789062 C 31.121094 10.554688 31.402344 10.097656 31.175781 10.097656 C 31.042969 10.097656 31.175781 9.722656 31.453125 9.324219 C 31.542969 9.191406 31.621094 9 31.648438 8.847656 C 31.691406 8.578125 32.019531 8.207031 32.28125 8.136719 C 32.707031 8.023438 33.519531 8.046875 33.769531 8.175781 M 33.269531 8.4375 C 33.015625 8.511719 32.496094 8.816406 32.53125 8.867188 C 32.542969 8.890625 32.628906 8.910156 32.714844 8.910156 C 32.804688 8.910156 32.929688 8.945312 33 8.984375 C 33.1875 9.089844 33.40625 9.070312 33.71875 8.929688 C 34.050781 8.777344 34.054688 8.761719 33.8125 8.574219 C 33.5625 8.378906 33.507812 8.367188 33.269531 8.4375 M 21.484375 8.792969 C 21.828125 8.832031 21.773438 8.910156 21.402344 8.910156 C 21.199219 8.910156 21.082031 8.882812 21.027344 8.832031 C 20.917969 8.71875 20.929688 8.695312 21.085938 8.730469 C 21.164062 8.746094 21.34375 8.773438 21.484375 8.792969 M 29.851562 9.105469 C 29.851562 9.183594 29.871094 9.261719 29.898438 9.28125 C 29.929688 9.296875 29.949219 9.238281 29.949219 9.132812 C 29.949219 9.039062 29.925781 8.957031 29.898438 8.957031 C 29.871094 8.957031 29.851562 9.023438 29.851562 9.105469 M 29.492188 9.65625 C 29.394531 9.714844 29.472656 9.757812 29.644531 9.742188 C 29.796875 9.726562 29.796875 9.726562 29.679688 9.671875 C 29.613281 9.640625 29.53125 9.632812 29.492188 9.65625 M 14.476562 9.777344 C 15.011719 9.933594 15.300781 10.238281 15.300781 10.652344 C 15.300781 11 15.246094 11.066406 14.765625 11.285156 C 11.714844 12.683594 9.847656 14.257812 10.492188 14.898438 C 11.21875 15.617188 14.296875 13.632812 15.496094 11.667969 C 15.597656 11.503906 15.722656 11.367188 15.796875 11.339844 C 18.15625 10.460938 19.464844 10.332031 22.121094 10.714844 C 23.035156 10.84375 23.070312 10.859375 23.28125 11.214844 C 23.363281 11.351562 23.527344 11.496094 23.792969 11.671875 C 24.242188 11.957031 24.300781 12.046875 24.144531 12.191406 L 24.039062 12.289062 L 24.230469 12.351562 C 24.332031 12.386719 24.476562 12.460938 24.546875 12.519531 C 24.617188 12.574219 24.859375 12.730469 25.082031 12.867188 C 25.304688 13.003906 25.515625 13.148438 25.546875 13.1875 C 25.582031 13.226562 25.691406 13.273438 25.792969 13.289062 C 25.894531 13.304688 26.050781 13.351562 26.140625 13.390625 C 26.230469 13.429688 26.34375 13.460938 26.390625 13.457031 C 26.441406 13.457031 26.417969 13.433594 26.335938 13.402344 C 26.015625 13.289062 26.347656 13.148438 27.074219 13.097656 L 27.523438 13.066406 L 27.386719 13.1875 C 27.175781 13.375 27.289062 13.414062 27.6875 13.289062 C 27.75 13.269531 27.800781 13.273438 27.800781 13.300781 C 27.800781 13.351562 27.507812 13.453125 27.300781 13.472656 C 27.199219 13.484375 27.175781 13.515625 27.171875 13.636719 C 27.171875 13.761719 27.152344 13.785156 27.023438 13.796875 C 26.753906 13.824219 26.734375 13.847656 26.878906 13.972656 L 27.011719 14.085938 L 26.542969 14.484375 C 26.285156 14.703125 25.894531 15.082031 25.675781 15.328125 C 25.136719 15.929688 24.753906 16.132812 24.171875 16.132812 C 24.023438 16.132812 23.894531 16.15625 23.878906 16.179688 C 23.84375 16.230469 24.105469 16.460938 24.246094 16.503906 C 24.488281 16.582031 24.417969 16.6875 23.644531 17.417969 C 21.96875 19.007812 21.09375 20.316406 20.671875 21.867188 C 20.617188 22.0625 20.613281 22.15625 20.652344 22.230469 C 20.695312 22.304688 20.691406 22.367188 20.648438 22.472656 C 20.617188 22.550781 20.601562 22.671875 20.621094 22.738281 C 20.640625 22.8125 20.597656 23.027344 20.507812 23.296875 C 20.429688 23.535156 20.3125 23.894531 20.25 24.09375 C 20.003906 24.855469 19.984375 24.570312 20.226562 23.75 C 20.402344 23.148438 20.4375 22.914062 20.355469 22.914062 C 20.3125 22.914062 20.261719 23.023438 20.128906 23.433594 C 19.992188 23.847656 19.898438 24.1875 19.828125 24.5 C 19.730469 24.96875 19.691406 25.039062 19.351562 25.363281 C 18.457031 26.226562 17.679688 27.417969 17.441406 28.292969 C 17.285156 28.875 17.34375 30.691406 17.53125 30.992188 C 17.617188 31.132812 17.4375 31.175781 17.183594 31.070312 C 15.488281 30.386719 14.222656 30.144531 13.242188 30.3125 C 10.796875 30.730469 9.230469 30.023438 8.648438 28.238281 C 8.40625 27.503906 8.035156 27.398438 7.21875 27.839844 C 6.511719 28.222656 6.417969 28.261719 6.105469 28.292969 C 4.738281 28.433594 3.984375 27.335938 3.652344 24.722656 C 3.507812 23.578125 3.511719 23.605469 2.660156 19.402344 C 2.496094 18.597656 2.335938 17.773438 2.300781 17.570312 C 2.269531 17.367188 2.222656 17.078125 2.199219 16.925781 C 1.707031 13.996094 2.496094 11.6875 4.300781 10.789062 C 5.527344 10.175781 6.238281 10.066406 10.324219 9.847656 C 10.902344 9.816406 11.644531 9.773438 11.976562 9.753906 C 13.078125 9.683594 14.183594 9.691406 14.476562 9.777344 M 25.421875 10.277344 C 25.515625 10.3125 25.4375 10.441406 25.324219 10.441406 C 25.238281 10.441406 25.191406 10.308594 25.265625 10.277344 C 25.296875 10.265625 25.328125 10.25 25.332031 10.25 C 25.339844 10.246094 25.378906 10.257812 25.421875 10.277344 M 14.699219 11.921875 C 14.699219 12.160156 13.402344 13.355469 12.488281 13.964844 C 11.195312 14.824219 10.332031 14.882812 11.082031 14.058594 C 11.640625 13.445312 14.699219 11.636719 14.699219 11.921875 M 25.421875 12.058594 C 25.601562 12.125 25.410156 12.21875 25.210938 12.15625 L 25.027344 12.101562 L 25.175781 12.070312 C 25.257812 12.054688 25.328125 12.035156 25.332031 12.03125 C 25.339844 12.03125 25.378906 12.039062 25.421875 12.058594 M 27.570312 14.53125 C 27.707031 14.664062 27.644531 14.742188 27.304688 14.855469 C 27.214844 14.882812 27.273438 14.890625 27.488281 14.875 C 27.796875 14.847656 27.800781 14.851562 28.050781 15.070312 C 28.339844 15.328125 28.476562 15.347656 28.769531 15.179688 C 29.023438 15.039062 29.074219 14.917969 28.867188 14.960938 C 28.546875 15.023438 28.101562 14.8125 28.101562 14.597656 C 28.101562 14.523438 28.136719 14.515625 28.40625 14.539062 C 28.570312 14.554688 28.898438 14.535156 29.132812 14.5 C 29.523438 14.441406 29.582031 14.441406 29.832031 14.527344 C 30.148438 14.632812 30.394531 14.898438 30.175781 14.898438 C 30.136719 14.898438 30.085938 14.925781 30.066406 14.960938 C 29.945312 15.15625 29.429688 15.382812 28.324219 15.722656 C 27.425781 16 27.339844 16.027344 27.03125 16.132812 C 26.867188 16.1875 26.675781 16.234375 26.605469 16.234375 C 26.523438 16.234375 26.332031 16.339844 26.109375 16.503906 C 25.910156 16.65625 25.683594 16.792969 25.609375 16.808594 C 25.535156 16.828125 25.332031 16.917969 25.160156 17.011719 C 24.660156 17.285156 24.730469 17.167969 25.472656 16.460938 C 26.128906 15.84375 26.167969 15.792969 26.164062 15.621094 C 26.152344 15.226562 27.34375 14.304688 27.570312 14.53125 M 26.75 15.144531 C 26.589844 15.261719 26.511719 15.34375 26.5625 15.34375 C 26.609375 15.34375 26.648438 15.324219 26.648438 15.300781 C 26.648438 15.277344 26.730469 15.21875 26.824219 15.167969 C 26.921875 15.113281 27 15.058594 27 15.039062 C 27 15.019531 27.039062 14.992188 27.085938 14.980469 C 27.148438 14.964844 27.152344 14.957031 27.101562 14.953125 C 27.058594 14.953125 26.902344 15.039062 26.75 15.144531 M 30.621094 15.125 C 30.703125 15.34375 30.660156 15.394531 30.136719 15.640625 C 29.78125 15.8125 29.5625 15.886719 29.417969 15.886719 C 29.136719 15.886719 28.625 16.046875 28.039062 16.316406 C 27.769531 16.4375 27.53125 16.523438 27.5 16.507812 C 27.414062 16.453125 27.527344 16.308594 27.734375 16.207031 C 27.839844 16.152344 28.003906 16.0625 28.101562 16.003906 C 28.195312 15.945312 28.421875 15.847656 28.601562 15.789062 C 28.777344 15.730469 28.992188 15.652344 29.074219 15.617188 C 29.820312 15.289062 30.367188 15.082031 30.558594 15.050781 C 30.574219 15.046875 30.601562 15.082031 30.621094 15.125 M 26.28125 15.78125 C 26.167969 15.902344 26.179688 15.949219 26.308594 15.910156 C 26.480469 15.855469 26.566406 15.753906 26.46875 15.71875 C 26.367188 15.679688 26.378906 15.675781 26.28125 15.78125 M 26.421875 16.699219 C 26.40625 16.738281 26.339844 16.777344 26.273438 16.789062 C 26.128906 16.816406 26.117188 16.789062 26.238281 16.699219 C 26.351562 16.613281 26.453125 16.613281 26.421875 16.699219 M 33.933594 17.519531 C 34.867188 17.980469 35.566406 18.792969 35.894531 19.792969 C 36.101562 20.425781 35.976562 21.109375 35.695312 20.859375 C 35.644531 20.808594 35.601562 20.75 35.601562 20.71875 C 35.601562 20.644531 35.132812 19.746094 34.859375 19.304688 C 34.574219 18.832031 34.03125 18.128906 33.644531 17.734375 C 33.183594 17.261719 33.277344 17.191406 33.933594 17.519531 M 21.800781 21.652344 C 21.800781 21.667969 21.757812 21.773438 21.703125 21.890625 C 21.15625 23.070312 21.007812 23.507812 21.160156 23.507812 C 21.203125 23.507812 21.273438 23.414062 21.320312 23.292969 C 21.457031 22.933594 21.601562 22.84375 21.601562 23.117188 C 21.601562 23.347656 21.457031 23.636719 21.320312 23.691406 C 21.28125 23.707031 21.199219 23.816406 21.140625 23.9375 C 21.027344 24.171875 20.945312 24.207031 20.835938 24.050781 C 20.769531 23.960938 20.761719 23.972656 20.734375 24.230469 C 20.703125 24.542969 20.597656 24.695312 20.410156 24.695312 C 20.230469 24.695312 20.277344 24.503906 20.75 23.28125 C 21.222656 22.058594 21.246094 22.011719 21.382812 21.953125 C 21.4375 21.929688 21.527344 21.84375 21.582031 21.769531 C 21.660156 21.648438 21.800781 21.578125 21.800781 21.652344 M 22.398438 21.914062 C 22.398438 22.023438 22.042969 22.765625 21.992188 22.765625 C 21.925781 22.765625 21.941406 22.535156 22.027344 22.242188 C 22.078125 22.078125 22.132812 21.976562 22.179688 21.976562 C 22.21875 21.976562 22.265625 21.941406 22.28125 21.902344 C 22.320312 21.796875 22.398438 21.808594 22.398438 21.914062 M 21.949219 24.933594 C 21.953125 25.789062 22.257812 27.515625 22.605469 28.597656 C 22.945312 29.660156 24.171875 31.828125 24.480469 31.902344 C 24.734375 31.96875 24.683594 31.828125 23.964844 30.546875 C 23.414062 29.554688 23.085938 28.898438 22.957031 28.53125 C 22.703125 27.789062 22.386719 26.570312 22.226562 25.710938 C 22.183594 25.464844 22.125 25.171875 22.097656 25.058594 C 22.070312 24.945312 22.050781 24.78125 22.050781 24.699219 C 22.050781 24.617188 22.027344 24.546875 22 24.546875 C 21.972656 24.546875 21.949219 24.710938 21.949219 24.933594 M 20.050781 24.695312 C 20.050781 24.75 20.027344 24.796875 20 24.796875 C 19.972656 24.796875 19.949219 24.75 19.949219 24.695312 C 19.949219 24.640625 19.972656 24.597656 20 24.597656 C 20.027344 24.597656 20.050781 24.640625 20.050781 24.695312 M 21.351562 24.796875 C 21.351562 24.851562 21.316406 24.894531 21.273438 24.894531 C 21.234375 24.894531 21.199219 24.851562 21.199219 24.796875 C 21.199219 24.742188 21.234375 24.695312 21.273438 24.695312 C 21.316406 24.695312 21.351562 24.742188 21.351562 24.796875 M 19.3125 26.191406 C 18.410156 27.496094 17.816406 29.625 18.074219 30.625 C 18.171875 30.992188 18.195312 31.433594 18.121094 31.460938 C 17.960938 31.519531 17.699219 30.167969 17.703125 29.304688 C 17.707031 28.328125 17.949219 27.703125 18.730469 26.675781 C 19.222656 26.03125 19.695312 25.636719 19.3125 26.191406 M 36.972656 26.410156 C 37.191406 26.492188 36.976562 26.675781 36.660156 26.675781 C 36.457031 26.675781 36.171875 26.511719 36.226562 26.425781 C 36.257812 26.375 36.847656 26.363281 36.972656 26.410156 M 23.203125 27.480469 C 23.207031 27.859375 23.753906 28.761719 24.492188 29.609375 C 25.167969 30.394531 26.59375 31.8125 26.765625 31.871094 C 26.84375 31.898438 27.011719 32.019531 27.140625 32.140625 C 27.65625 32.625 28.773438 33.507812 28.871094 33.507812 C 29.054688 33.507812 27.519531 32.121094 27.109375 31.914062 C 26.8125 31.765625 25.636719 30.664062 24.96875 29.910156 C 24.613281 29.511719 24.203125 29.046875 24.050781 28.878906 C 23.78125 28.582031 23.398438 27.96875 23.398438 27.835938 C 23.398438 27.800781 23.378906 27.757812 23.351562 27.742188 C 23.324219 27.722656 23.300781 27.644531 23.300781 27.566406 C 23.300781 27.484375 23.277344 27.417969 23.25 27.417969 C 23.222656 27.417969 23.199219 27.445312 23.203125 27.480469 M 20.75 29.644531 C 20.980469 29.792969 21.957031 31.871094 22.074219 32.464844 C 22.160156 32.882812 22.148438 32.925781 21.992188 32.753906 C 21.65625 32.378906 21.171875 31.40625 20.925781 30.613281 C 20.847656 30.367188 20.769531 30.121094 20.746094 30.066406 C 20.726562 30.011719 20.695312 29.84375 20.683594 29.695312 C 20.667969 29.546875 20.671875 29.46875 20.683594 29.523438 C 20.699219 29.578125 20.730469 29.632812 20.75 29.644531 M 35.773438 30.160156 C 35.910156 30.257812 35.835938 30.386719 35.648438 30.386719 C 35.460938 30.386719 35.390625 30.257812 35.527344 30.160156 C 35.578125 30.121094 35.632812 30.089844 35.648438 30.089844 C 35.667969 30.089844 35.722656 30.121094 35.773438 30.160156 M 36.121094 32.070312 C 36.535156 32.164062 36.710938 32.445312 36.621094 32.867188 C 36.527344 33.292969 36.234375 33.339844 35.898438 32.988281 C 35.625 32.695312 35.238281 32.640625 34.5625 32.796875 C 34.132812 32.894531 34.0625 32.859375 34.300781 32.65625 C 34.953125 32.113281 35.515625 31.929688 36.121094 32.070312 "/>
<path style=" stroke:none;fill-rule:evenodd;fill:rgb(100%,100%,100%);fill-opacity:1;" d="M 0 30.460938 L 0 60.925781 L 50 60.925781 L 50 0 L 0 0 L 0 30.460938 M 16.65625 0.984375 C 17.578125 2.371094 18.875 3.367188 20.660156 4.0625 C 23.480469 5.160156 24.65625 5.894531 26.703125 7.828125 C 27.296875 8.390625 27.679688 8.714844 27.753906 8.722656 C 27.835938 8.730469 28.027344 8.917969 28.378906 9.328125 C 28.882812 9.917969 29.335938 10.382812 29.363281 10.339844 C 29.367188 10.328125 29.410156 10.253906 29.449219 10.175781 C 29.535156 10.011719 29.621094 9.996094 29.625 10.144531 C 29.625 10.199219 29.648438 10.238281 29.675781 10.230469 C 29.703125 10.226562 29.722656 10.179688 29.722656 10.132812 C 29.71875 10.078125 29.746094 10.046875 29.792969 10.058594 C 29.929688 10.082031 29.90625 10.183594 29.726562 10.363281 L 29.550781 10.539062 L 29.667969 10.671875 L 29.785156 10.808594 L 29.921875 10.675781 C 29.992188 10.601562 30.074219 10.542969 30.101562 10.542969 C 30.164062 10.542969 30.472656 10.0625 30.761719 9.507812 C 31.691406 7.730469 32.957031 7.265625 34.574219 8.117188 C 35.429688 8.570312 35.378906 8.5625 38.042969 8.5625 C 40.441406 8.5625 41.023438 8.601562 41.453125 8.78125 C 41.609375 8.84375 41.488281 8.851562 40.25 8.84375 C 37.445312 8.824219 36.066406 9.0625 35.476562 9.667969 C 35.308594 9.835938 35.050781 10.039062 34.902344 10.121094 C 34.316406 10.4375 33.359375 12.460938 32.902344 14.347656 C 32.699219 15.167969 32.476562 15.703125 32.128906 16.195312 C 31.96875 16.417969 31.941406 16.40625 33.226562 16.785156 C 34.167969 17.066406 34.910156 17.527344 35.417969 18.152344 C 36.296875 19.226562 36.566406 20.691406 35.964844 21.125 L 35.828125 21.222656 L 35.914062 21.660156 C 36.128906 22.734375 36.140625 23.402344 35.976562 24.621094 C 35.894531 25.203125 35.878906 25.824219 35.9375 25.914062 C 35.960938 25.945312 36.222656 25.980469 36.546875 26 C 36.925781 26.019531 37.152344 26.058594 37.230469 26.105469 C 37.800781 26.476562 37.25 27.171875 36.4375 27.101562 C 36.019531 27.066406 36.019531 27.0625 36.460938 27.386719 C 37.269531 27.976562 37.554688 28.511719 37.402344 29.144531 C 37.339844 29.394531 36.789062 30.25 36.554688 30.457031 C 36.3125 30.675781 36.507812 31.582031 36.863281 31.878906 C 37.085938 32.066406 37.101562 32.382812 36.921875 33.152344 C 36.789062 33.71875 36.789062 33.769531 36.851562 34.097656 C 36.9375 34.550781 36.875 34.765625 36.601562 34.984375 C 36.382812 35.160156 36.304688 35.359375 36.199219 36.03125 C 35.941406 37.6875 35.609375 38.140625 34.398438 38.511719 C 33.601562 38.757812 32.457031 38.597656 31.273438 38.078125 C 30.375 37.683594 29.847656 37.582031 29.472656 37.734375 C 28.742188 38.039062 27.664062 39.921875 27.898438 40.480469 C 28.027344 40.789062 28.4375 40.808594 29.488281 40.558594 C 30.175781 40.394531 30.566406 40.296875 31.898438 39.9375 C 33.046875 39.625 35.597656 39.132812 36.476562 39.050781 C 38.066406 38.902344 39.527344 39.621094 40.988281 41.277344 C 42.808594 43.335938 45.484375 47.960938 46.539062 50.878906 C 46.59375 51.027344 46.730469 51.394531 46.839844 51.695312 C 47.257812 52.824219 47.582031 53.921875 48.175781 56.199219 C 48.632812 57.964844 48.914062 59.816406 48.753906 60.035156 C 48.601562 60.238281 48.359375 59.550781 47.957031 57.808594 C 46.628906 52.0625 45.207031 48.507812 42.605469 44.453125 C 40.300781 40.855469 38.769531 39.546875 36.863281 39.546875 C 35.925781 39.542969 32.960938 40.101562 29.976562 40.839844 C 28.769531 41.140625 28.773438 41.140625 28.324219 41.121094 C 27.164062 41.074219 27.09375 40.097656 28.136719 38.53125 C 28.800781 37.539062 29.269531 37.273438 30.25 37.34375 C 30.605469 37.371094 30.777344 37.40625 30.925781 37.492188 C 31.15625 37.621094 32.601562 38.070312 33.140625 38.183594 C 34.515625 38.464844 35.542969 37.882812 35.742188 36.699219 C 35.800781 36.355469 35.953125 35.433594 35.984375 35.207031 C 36.007812 35.070312 35.992188 35.046875 35.84375 34.996094 C 35.652344 34.933594 34.820312 34.472656 34.6875 34.359375 C 34.398438 34.113281 34.820312 34.152344 35.410156 34.425781 C 36.367188 34.871094 36.632812 34.757812 36.496094 33.96875 C 36.445312 33.6875 36.425781 33.652344 36.308594 33.625 C 36.105469 33.578125 35.757812 33.367188 35.695312 33.253906 C 35.511719 32.910156 34.640625 32.890625 33.910156 33.210938 C 33.09375 33.566406 33.6875 32.726562 34.730469 32.054688 C 34.976562 31.890625 35.636719 31.765625 36.007812 31.808594 L 36.261719 31.839844 L 36.234375 31.671875 C 36.195312 31.421875 36.054688 30.832031 36.023438 30.777344 C 36.007812 30.753906 35.863281 30.734375 35.703125 30.734375 C 35.027344 30.734375 34.792969 30.097656 35.367188 29.824219 C 35.664062 29.6875 35.839844 29.726562 36.132812 30.003906 C 36.335938 30.191406 36.394531 30.167969 36.640625 29.808594 C 37.34375 28.78125 37.230469 28.332031 36.078125 27.597656 C 35.25 27.066406 34.742188 25.976562 35.28125 25.882812 C 35.410156 25.863281 35.425781 25.835938 35.4375 25.660156 C 35.445312 25.554688 35.535156 24.957031 35.636719 24.335938 C 35.8125 23.25 35.816406 23.1875 35.757812 22.734375 C 35.621094 21.65625 35.449219 21.105469 35.140625 20.753906 C 34.828125 20.394531 34.769531 20.292969 34.851562 20.242188 C 35.15625 20.054688 32.894531 17.5 31.945312 16.957031 C 31.644531 16.785156 31.617188 16.789062 31.277344 17.050781 C 30.554688 17.605469 29.65625 18.054688 28.558594 18.410156 C 27.449219 18.765625 26.320312 19.222656 25.902344 19.480469 C 25.695312 19.605469 25.425781 19.753906 25.300781 19.808594 C 24.921875 19.96875 24.59375 20.375 24.527344 20.773438 C 24.480469 21.039062 24.398438 21 24.398438 20.710938 C 24.398438 20.3125 24.011719 20.710938 23.121094 22.023438 C 22.464844 22.996094 22.460938 23.007812 22.546875 24.207031 C 22.582031 24.695312 22.601562 25.109375 22.585938 25.125 C 22.527344 25.179688 22.25 23.945312 22.25 23.628906 C 22.25 23.34375 21.78125 23.816406 21.71875 24.164062 C 21.703125 24.253906 21.671875 24.371094 21.648438 24.425781 C 21.535156 24.699219 21.554688 25.078125 21.703125 25.390625 C 21.832031 25.660156 21.851562 25.75 21.851562 26.148438 C 21.851562 26.484375 21.902344 26.851562 22.050781 27.566406 C 22.164062 28.097656 22.273438 28.632812 22.300781 28.753906 C 22.476562 29.628906 23.140625 31.589844 23.34375 31.84375 C 23.398438 31.910156 23.585938 32.257812 24.027344 33.085938 C 24.449219 33.882812 24.949219 34.648438 25.972656 36.054688 C 26.808594 37.207031 26.867188 37.304688 26.785156 37.40625 C 26.609375 37.625 25.066406 35.59375 23.921875 33.628906 C 23.753906 33.339844 23.148438 32.136719 23.148438 32.09375 C 23.148438 32.074219 23.109375 32.003906 23.058594 31.929688 C 22.761719 31.507812 22.164062 29.5 21.902344 28.039062 C 21.875 27.875 21.816406 27.535156 21.769531 27.285156 C 21.675781 26.75 21.714844 26.746094 21.125 27.289062 L 20.726562 27.65625 L 20.707031 28.035156 C 20.675781 28.664062 20.90625 29.382812 21.347656 30.011719 C 21.503906 30.238281 22.003906 31.246094 22.074219 31.476562 C 22.097656 31.546875 22.167969 31.707031 22.234375 31.832031 C 22.335938 32.023438 22.371094 32.203125 22.421875 32.78125 C 22.460938 33.171875 22.515625 33.542969 22.550781 33.605469 C 22.601562 33.703125 22.597656 33.730469 22.527344 33.785156 C 22.472656 33.824219 22.425781 33.960938 22.398438 34.160156 C 22.328125 34.625 22.28125 34.824219 22.113281 35.292969 C 21.953125 35.75 21.953125 35.796875 22.148438 35.855469 C 23.773438 36.339844 24.234375 38.5625 23.105469 40.453125 C 22.367188 41.695312 22.832031 42.773438 24.351562 43.351562 C 24.941406 43.578125 25.257812 43.757812 25.492188 44.003906 C 26.066406 44.609375 25.78125 45.582031 25.027344 45.582031 C 24.4375 45.582031 24.027344 45.046875 24.351562 44.703125 C 24.519531 44.523438 24.613281 44.558594 24.574219 44.785156 C 24.515625 45.136719 24.992188 45.335938 25.25 45.066406 C 25.660156 44.632812 25.253906 44.140625 24.082031 43.65625 C 23.242188 43.308594 22.925781 43.058594 22.664062 42.539062 C 22.277344 41.78125 22.3125 40.914062 22.753906 40.238281 C 23.511719 39.078125 23.617188 37.878906 23.042969 36.886719 C 22.804688 36.472656 22.144531 35.980469 21.824219 35.980469 C 21.683594 35.980469 21.691406 35.75 21.84375 35.304688 C 22.214844 34.234375 22.25 33.527344 21.953125 33.074219 C 21.46875 32.339844 20.734375 30.613281 20.597656 29.894531 C 20.574219 29.773438 20.507812 29.460938 20.449219 29.199219 C 20.335938 28.6875 20.289062 27.640625 20.375 27.578125 C 20.449219 27.527344 20.648438 27.234375 20.648438 27.175781 C 20.648438 27.152344 20.742188 27.078125 20.859375 27.015625 C 21.441406 26.691406 21.617188 25.878906 21.195312 25.4375 C 20.992188 25.21875 20.921875 25.289062 20.992188 25.644531 C 21.074219 26.042969 21.085938 26.390625 21.015625 26.414062 C 20.945312 26.441406 20.863281 26.203125 20.804688 25.765625 C 20.742188 25.320312 20.707031 25.296875 20.476562 25.523438 C 20.25 25.753906 20.152344 25.960938 20.144531 26.242188 C 20.140625 26.445312 20.136719 26.449219 20.085938 26.316406 C 20.003906 26.109375 19.917969 26.152344 19.679688 26.519531 C 18.867188 27.761719 18.296875 29.679688 18.523438 30.417969 C 18.566406 30.550781 18.625 30.917969 18.660156 31.226562 L 18.71875 31.796875 L 18.933594 32 C 19.277344 32.324219 19.226562 32.617188 18.820312 32.664062 C 18.523438 32.695312 18.449219 32.792969 18.542969 33.023438 C 18.882812 33.839844 18.882812 34.386719 18.546875 35.695312 C 17.941406 38.054688 16.152344 41.933594 15.007812 43.378906 C 13.769531 44.941406 12.757812 45.632812 10.648438 46.375 C 7.195312 47.585938 6.101562 48.078125 5.023438 48.902344 C 3.125 50.355469 2.445312 51.769531 2.675781 53.773438 C 2.828125 55.078125 3.097656 55.730469 4.121094 57.261719 C 5.308594 59.039062 5.859375 60.035156 5.652344 60.035156 C 5.582031 60.035156 5.304688 59.691406 4.871094 59.082031 C 4.65625 58.773438 4.152344 58.089844 3.75 57.558594 C 1.035156 53.960938 1.429688 50.753906 4.902344 48.199219 C 5.882812 47.480469 7.941406 46.589844 10.542969 45.757812 C 13.304688 44.878906 14.777344 43.414062 16.386719 39.964844 C 16.472656 39.773438 16.640625 39.417969 16.753906 39.171875 C 17.15625 38.308594 17.820312 36.574219 18.003906 35.90625 C 18.46875 34.207031 18.480469 33.253906 18.027344 33.648438 C 17.613281 34.003906 17.210938 33.683594 17.425781 33.171875 C 17.53125 32.929688 17.730469 32.726562 17.90625 32.6875 C 18.371094 32.585938 18.019531 31.878906 17.359375 31.585938 C 15.824219 30.910156 14.394531 30.613281 13.296875 30.75 C 12.3125 30.875 12.09375 30.882812 11.542969 30.835938 C 9.894531 30.6875 8.777344 29.867188 8.300781 28.460938 C 8.113281 27.902344 7.949219 27.863281 7.324219 28.238281 C 5.886719 29.101562 4.53125 28.699219 3.796875 27.199219 C 3.503906 26.597656 3.386719 26.078125 3.121094 24.226562 C 3.050781 23.738281 2.972656 23.246094 2.949219 23.136719 C 2.925781 23.027344 2.882812 22.796875 2.851562 22.617188 C 2.816406 22.441406 2.773438 22.195312 2.746094 22.074219 C 2.621094 21.441406 2.332031 19.910156 2.183594 19.078125 C 2.019531 18.183594 1.980469 17.941406 1.84375 16.902344 C 1.617188 15.199219 1.859375 13.386719 2.464844 12.273438 C 3.457031 10.445312 4.984375 9.804688 9.050781 9.503906 C 9.449219 9.476562 10.382812 9.402344 11.125 9.34375 C 14.660156 9.066406 15.621094 9.296875 15.78125 10.46875 C 15.828125 10.800781 15.859375 10.804688 16.5 10.585938 C 17.277344 10.316406 17.960938 10.164062 18.785156 10.066406 C 19.464844 9.988281 19.765625 9.988281 21.25 10.078125 L 21.773438 10.109375 L 21.675781 10 C 21.621094 9.9375 21.574219 9.839844 21.574219 9.78125 C 21.574219 9.710938 21.53125 9.664062 21.425781 9.632812 C 21.015625 9.511719 20.839844 9.433594 20.667969 9.296875 L 20.476562 9.148438 L 20.800781 9.179688 C 21.121094 9.214844 21.125 9.214844 20.976562 9.132812 C 20.632812 8.945312 20.507812 8.742188 20.699219 8.671875 C 20.847656 8.617188 20.765625 8.554688 20.300781 8.351562 C 19.71875 8.097656 19.398438 7.824219 19.402344 7.582031 L 19.402344 7.398438 L 19.542969 7.558594 C 19.625 7.648438 19.710938 7.722656 19.738281 7.722656 C 19.765625 7.722656 19.824219 7.777344 19.871094 7.847656 C 20.015625 8.0625 20.554688 8.210938 21.199219 8.210938 C 21.679688 8.210938 21.65625 8.164062 21.125 8.066406 C 20.320312 7.914062 19.535156 7.34375 19.667969 7 C 19.703125 6.914062 19.480469 6.679688 19.359375 6.679688 C 18.816406 6.679688 17.59375 5.730469 17.421875 5.175781 C 17.324219 4.84375 17.410156 4.859375 17.703125 5.226562 C 18.050781 5.660156 18.730469 6.171875 18.828125 6.074219 C 18.855469 6.050781 17.527344 4.71875 17.351562 4.59375 C 16.476562 3.96875 16.199219 3.214844 16.199219 1.429688 C 16.199219 0.484375 16.222656 0.300781 16.324219 0.472656 C 16.351562 0.523438 16.503906 0.75 16.65625 0.984375 M 16.351562 1.332031 C 16.351562 2.554688 17.082031 4.300781 17.589844 4.308594 C 17.71875 4.308594 17.847656 4.371094 18.664062 4.824219 C 18.933594 4.972656 19.085938 5.019531 19.402344 5.054688 C 19.855469 5.105469 20.5 5.242188 21.074219 5.417969 C 21.296875 5.480469 21.621094 5.574219 21.800781 5.617188 C 21.980469 5.660156 22.277344 5.746094 22.464844 5.800781 C 22.648438 5.859375 22.816406 5.890625 22.835938 5.871094 C 22.878906 5.828125 22.695312 5.695312 22.589844 5.691406 C 22.542969 5.691406 22.375 5.636719 22.214844 5.574219 C 22.054688 5.507812 21.6875 5.382812 21.398438 5.296875 C 21.109375 5.210938 20.773438 5.09375 20.648438 5.035156 C 20.527344 4.976562 20.359375 4.914062 20.28125 4.902344 C 20.199219 4.886719 20.109375 4.832031 20.082031 4.777344 C 20.050781 4.722656 20.003906 4.660156 19.976562 4.640625 C 19.867188 4.5625 20.023438 4.609375 20.257812 4.726562 C 20.527344 4.859375 20.851562 4.894531 20.851562 4.785156 C 20.851562 4.753906 20.777344 4.695312 20.6875 4.660156 C 20.183594 4.460938 19.953125 4.394531 19.78125 4.398438 C 19.585938 4.40625 19.050781 4.15625 18.820312 3.949219 C 18.761719 3.898438 18.546875 3.761719 18.34375 3.644531 C 17.753906 3.308594 17.738281 3.296875 17.578125 3.148438 C 17.4375 3.019531 17.449219 3.023438 17.714844 3.1875 C 17.871094 3.285156 18.023438 3.367188 18.050781 3.367188 C 18.078125 3.367188 18.101562 3.386719 18.101562 3.414062 C 18.101562 3.441406 18.144531 3.464844 18.195312 3.464844 C 18.25 3.464844 18.308594 3.488281 18.324219 3.515625 C 18.355469 3.566406 18.550781 3.585938 18.550781 3.535156 C 18.550781 3.496094 18.496094 3.449219 17.992188 3.035156 C 17.238281 2.410156 16.550781 1.574219 16.550781 1.273438 C 16.550781 1.117188 16.476562 0.988281 16.390625 0.988281 C 16.367188 0.988281 16.351562 1.144531 16.351562 1.332031 M 21.878906 5.144531 C 21.835938 5.207031 22.089844 5.394531 22.21875 5.394531 C 22.277344 5.394531 22.378906 5.4375 22.445312 5.488281 C 22.605469 5.609375 22.785156 5.574219 22.660156 5.445312 C 22.484375 5.265625 21.933594 5.054688 21.878906 5.144531 M 23.324219 6.386719 C 23.289062 6.445312 23.578125 6.785156 23.941406 7.117188 C 24.132812 7.289062 24.160156 7.335938 24.101562 7.375 C 23.960938 7.460938 24.144531 7.679688 24.507812 7.871094 C 24.691406 7.964844 24.933594 8.125 25.046875 8.226562 C 25.375 8.527344 25.425781 8.375 25.101562 8.054688 C 24.878906 7.835938 24.871094 7.820312 24.96875 7.820312 C 25.148438 7.820312 25.632812 8.441406 25.777344 8.863281 C 25.984375 9.445312 26.339844 9.792969 26.390625 9.460938 C 26.425781 9.234375 26.722656 9.460938 26.785156 9.757812 C 26.863281 10.144531 27.257812 10.355469 27.324219 10.050781 C 27.371094 9.839844 27.445312 9.8125 27.480469 9.992188 C 27.523438 10.195312 27.613281 10.261719 27.824219 10.234375 C 27.921875 10.222656 28 10.21875 28 10.226562 C 28 10.316406 28.175781 10.890625 28.230469 10.976562 C 28.308594 11.097656 28.492188 11.121094 28.597656 11.023438 C 28.648438 10.976562 28.667969 10.976562 28.683594 11.023438 C 28.699219 11.058594 28.742188 11.085938 28.78125 11.085938 C 28.820312 11.085938 28.886719 11.164062 28.929688 11.261719 C 28.96875 11.355469 29.140625 11.578125 29.3125 11.753906 C 29.769531 12.21875 30.289062 12.78125 30.367188 12.886719 C 30.4375 12.988281 30.550781 12.960938 30.550781 12.839844 C 30.550781 12.742188 30.699219 12.75 30.777344 12.855469 C 30.871094 12.980469 30.960938 12.875 30.941406 12.664062 C 30.929688 12.53125 30.890625 12.476562 30.738281 12.398438 C 30.636719 12.34375 30.484375 12.210938 30.398438 12.101562 C 30.3125 11.992188 30.1875 11.867188 30.117188 11.824219 C 30.046875 11.777344 29.902344 11.621094 29.796875 11.472656 C 29.691406 11.320312 29.515625 11.140625 29.40625 11.070312 C 29.109375 10.875 28.574219 10.394531 26.828125 8.757812 C 26.550781 8.496094 26.242188 8.226562 26.140625 8.152344 C 26.039062 8.078125 25.679688 7.761719 25.339844 7.445312 C 24.691406 6.839844 24.371094 6.640625 23.738281 6.441406 C 23.351562 6.316406 23.367188 6.320312 23.324219 6.386719 M 32.832031 8.074219 C 32.082031 8.132812 31.722656 8.367188 31.648438 8.847656 C 31.621094 9 31.542969 9.191406 31.453125 9.324219 C 31.175781 9.722656 31.042969 10.097656 31.175781 10.097656 C 31.402344 10.097656 31.121094 10.554688 30.753906 10.789062 C 30.46875 10.96875 30.460938 10.988281 30.59375 11.261719 C 30.644531 11.371094 30.699219 11.546875 30.714844 11.65625 C 30.734375 11.765625 30.785156 11.875 30.832031 11.902344 C 30.878906 11.929688 30.988281 12.015625 31.078125 12.089844 C 31.234375 12.222656 31.351562 12.261719 31.351562 12.1875 C 31.351562 12.15625 31.507812 12.148438 31.738281 12.167969 C 31.828125 12.175781 31.996094 12.5625 32 12.761719 L 32 12.925781 L 31.675781 12.910156 C 31.355469 12.894531 31.203125 12.949219 31.273438 13.0625 C 31.289062 13.089844 31.371094 13.117188 31.453125 13.117188 C 31.738281 13.117188 31.648438 13.320312 31.25 13.59375 C 30.832031 13.875 30.40625 14.144531 30.332031 14.167969 C 30.226562 14.203125 30.355469 14.351562 30.605469 14.476562 L 30.867188 14.605469 L 31.007812 14.503906 C 31.210938 14.355469 31.230469 14.378906 31.054688 14.578125 C 30.90625 14.746094 30.898438 14.945312 31.042969 14.945312 C 31.203125 14.945312 31.863281 14.011719 31.980469 13.617188 C 32.027344 13.464844 32.117188 13.222656 32.183594 13.082031 C 32.246094 12.941406 32.300781 12.800781 32.300781 12.773438 C 32.300781 12.742188 32.503906 12.308594 32.75 11.808594 C 33.203125 10.886719 33.25 10.765625 33.140625 10.726562 C 33.105469 10.71875 33.152344 10.648438 33.25 10.5625 C 33.34375 10.484375 33.523438 10.328125 33.648438 10.214844 C 33.980469 9.921875 34.105469 9.847656 34.273438 9.847656 C 34.359375 9.847656 34.503906 9.808594 34.601562 9.757812 C 34.695312 9.707031 34.859375 9.636719 34.960938 9.605469 C 35.140625 9.546875 35.207031 9.445312 35.101562 9.378906 C 35.074219 9.363281 35.050781 9.296875 35.050781 9.230469 C 35.050781 9.164062 35.074219 9.097656 35.101562 9.082031 C 35.203125 9.019531 35.140625 8.957031 34.796875 8.785156 C 34.601562 8.691406 34.316406 8.527344 34.160156 8.421875 C 33.625 8.0625 33.472656 8.023438 32.832031 8.074219 M 33.8125 8.574219 C 34.054688 8.761719 34.050781 8.777344 33.71875 8.929688 C 33.40625 9.070312 33.1875 9.089844 33 8.984375 C 32.929688 8.945312 32.804688 8.910156 32.714844 8.910156 C 32.464844 8.90625 32.484375 8.84375 32.785156 8.664062 C 33.320312 8.347656 33.496094 8.332031 33.8125 8.574219 M 20.949219 8.726562 C 20.949219 8.832031 21.136719 8.910156 21.402344 8.910156 C 21.773438 8.910156 21.828125 8.832031 21.484375 8.792969 C 21.34375 8.773438 21.164062 8.746094 21.085938 8.730469 C 21.011719 8.714844 20.949219 8.710938 20.949219 8.726562 M 29.949219 9.132812 C 29.949219 9.238281 29.929688 9.296875 29.898438 9.28125 C 29.871094 9.261719 29.851562 9.183594 29.851562 9.105469 C 29.851562 9.023438 29.871094 8.957031 29.898438 8.957031 C 29.925781 8.957031 29.949219 9.039062 29.949219 9.132812 M 29.644531 9.742188 C 29.472656 9.757812 29.394531 9.714844 29.492188 9.65625 C 29.53125 9.632812 29.613281 9.640625 29.679688 9.671875 C 29.796875 9.726562 29.796875 9.726562 29.644531 9.742188 M 11.976562 9.753906 C 11.644531 9.773438 10.902344 9.816406 10.324219 9.847656 C 6.238281 10.066406 5.527344 10.175781 4.300781 10.789062 C 2.496094 11.6875 1.707031 13.996094 2.199219 16.925781 C 2.222656 17.078125 2.269531 17.367188 2.300781 17.570312 C 2.335938 17.773438 2.496094 18.597656 2.660156 19.402344 C 3.511719 23.605469 3.507812 23.578125 3.652344 24.722656 C 3.984375 27.335938 4.738281 28.433594 6.105469 28.292969 C 6.417969 28.261719 6.511719 28.222656 7.21875 27.839844 C 8.035156 27.398438 8.40625 27.503906 8.648438 28.238281 C 9.230469 30.023438 10.796875 30.730469 13.242188 30.3125 C 14.222656 30.144531 15.488281 30.386719 17.183594 31.070312 C 17.4375 31.175781 17.617188 31.132812 17.53125 30.992188 C 17.34375 30.691406 17.285156 28.875 17.441406 28.292969 C 17.679688 27.417969 18.457031 26.226562 19.351562 25.363281 C 19.691406 25.039062 19.730469 24.96875 19.828125 24.5 C 19.898438 24.1875 19.992188 23.847656 20.128906 23.433594 C 20.261719 23.023438 20.3125 22.914062 20.355469 22.914062 C 20.4375 22.914062 20.402344 23.148438 20.226562 23.75 C 19.984375 24.570312 20.003906 24.855469 20.25 24.09375 C 20.3125 23.894531 20.429688 23.535156 20.507812 23.296875 C 20.597656 23.027344 20.640625 22.8125 20.621094 22.738281 C 20.601562 22.671875 20.617188 22.550781 20.648438 22.472656 C 20.691406 22.367188 20.695312 22.304688 20.652344 22.230469 C 20.613281 22.15625 20.617188 22.0625 20.671875 21.867188 C 21.09375 20.316406 21.96875 19.007812 23.644531 17.417969 C 24.417969 16.6875 24.488281 16.582031 24.246094 16.503906 C 24.105469 16.460938 23.84375 16.230469 23.878906 16.179688 C 23.894531 16.15625 24.023438 16.132812 24.171875 16.132812 C 24.753906 16.132812 25.136719 15.929688 25.675781 15.328125 C 25.894531 15.082031 26.285156 14.703125 26.542969 14.484375 L 27.011719 14.085938 L 26.878906 13.972656 C 26.734375 13.847656 26.753906 13.824219 27.023438 13.796875 C 27.152344 13.785156 27.171875 13.761719 27.171875 13.636719 C 27.175781 13.515625 27.199219 13.484375 27.300781 13.472656 C 27.507812 13.453125 27.800781 13.351562 27.800781 13.300781 C 27.800781 13.273438 27.75 13.269531 27.6875 13.289062 C 27.289062 13.414062 27.175781 13.375 27.386719 13.1875 L 27.523438 13.066406 L 27.074219 13.097656 C 26.347656 13.148438 26.015625 13.289062 26.335938 13.402344 C 26.417969 13.433594 26.441406 13.457031 26.390625 13.457031 C 26.34375 13.460938 26.230469 13.429688 26.140625 13.390625 C 26.050781 13.351562 25.894531 13.304688 25.792969 13.289062 C 25.691406 13.273438 25.582031 13.226562 25.546875 13.1875 C 25.515625 13.148438 25.304688 13.003906 25.082031 12.867188 C 24.859375 12.730469 24.617188 12.574219 24.546875 12.519531 C 24.476562 12.460938 24.332031 12.386719 24.230469 12.351562 L 24.039062 12.289062 L 24.144531 12.191406 C 24.300781 12.046875 24.242188 11.957031 23.792969 11.671875 C 23.527344 11.496094 23.363281 11.351562 23.28125 11.214844 C 23.070312 10.859375 23.035156 10.84375 22.121094 10.714844 C 19.464844 10.332031 18.15625 10.460938 15.796875 11.339844 C 15.722656 11.367188 15.597656 11.503906 15.496094 11.667969 C 14.296875 13.632812 11.21875 15.617188 10.492188 14.898438 C 9.847656 14.257812 11.714844 12.683594 14.765625 11.285156 C 15.246094 11.066406 15.300781 11 15.300781 10.652344 C 15.300781 9.8125 14.492188 9.59375 11.976562 9.753906 M 25.265625 10.277344 C 25.191406 10.308594 25.238281 10.441406 25.324219 10.441406 C 25.4375 10.441406 25.515625 10.3125 25.421875 10.277344 C 25.378906 10.257812 25.339844 10.246094 25.332031 10.25 C 25.328125 10.25 25.296875 10.265625 25.265625 10.277344 M 13.851562 12.253906 C 12.125 13.148438 10.925781 14.007812 10.820312 14.429688 C 10.605469 15.28125 13.355469 13.621094 14.503906 12.207031 C 14.863281 11.765625 14.785156 11.773438 13.851562 12.253906 M 25.175781 12.070312 L 25.027344 12.101562 L 25.210938 12.15625 C 25.355469 12.203125 25.40625 12.199219 25.449219 12.152344 C 25.492188 12.101562 25.390625 11.992188 25.332031 12.03125 C 25.328125 12.035156 25.257812 12.054688 25.175781 12.070312 M 26.996094 14.707031 C 26.441406 15.089844 26.160156 15.398438 26.164062 15.621094 C 26.167969 15.792969 26.128906 15.84375 25.472656 16.460938 C 24.730469 17.167969 24.660156 17.285156 25.160156 17.011719 C 25.332031 16.917969 25.535156 16.828125 25.609375 16.808594 C 25.683594 16.792969 25.910156 16.65625 26.109375 16.503906 C 26.332031 16.339844 26.523438 16.234375 26.605469 16.234375 C 26.675781 16.234375 26.867188 16.1875 27.03125 16.132812 C 27.339844 16.027344 27.425781 16 28.324219 15.722656 C 29.429688 15.382812 29.945312 15.15625 30.066406 14.960938 C 30.085938 14.925781 30.136719 14.898438 30.175781 14.898438 C 30.394531 14.898438 30.148438 14.632812 29.832031 14.527344 C 29.582031 14.441406 29.523438 14.441406 29.132812 14.5 C 28.898438 14.535156 28.570312 14.554688 28.40625 14.539062 C 28.136719 14.515625 28.101562 14.523438 28.101562 14.597656 C 28.101562 14.8125 28.546875 15.023438 28.867188 14.960938 C 29.074219 14.917969 29.023438 15.039062 28.769531 15.179688 C 28.476562 15.347656 28.339844 15.328125 28.050781 15.070312 C 27.800781 14.851562 27.796875 14.847656 27.488281 14.875 C 27.273438 14.890625 27.214844 14.882812 27.304688 14.855469 C 27.644531 14.742188 27.707031 14.664062 27.570312 14.53125 C 27.453125 14.414062 27.398438 14.429688 26.996094 14.707031 M 27.085938 14.980469 C 27.039062 14.992188 27 15.019531 27 15.039062 C 27 15.058594 26.921875 15.113281 26.824219 15.167969 C 26.730469 15.21875 26.648438 15.277344 26.648438 15.300781 C 26.648438 15.324219 26.609375 15.34375 26.5625 15.34375 C 26.511719 15.34375 26.589844 15.261719 26.75 15.144531 C 26.902344 15.039062 27.058594 14.953125 27.101562 14.953125 C 27.152344 14.957031 27.148438 14.964844 27.085938 14.980469 M 30.375 15.09375 C 30.246094 15.128906 29.570312 15.398438 29.074219 15.617188 C 28.992188 15.652344 28.777344 15.730469 28.601562 15.789062 C 28.421875 15.847656 28.195312 15.945312 28.101562 16.003906 C 28.003906 16.0625 27.839844 16.152344 27.734375 16.207031 C 27.527344 16.308594 27.414062 16.453125 27.5 16.507812 C 27.53125 16.523438 27.769531 16.4375 28.039062 16.316406 C 28.625 16.046875 29.136719 15.886719 29.417969 15.886719 C 29.5625 15.886719 29.78125 15.8125 30.136719 15.640625 C 30.660156 15.394531 30.703125 15.34375 30.621094 15.125 C 30.585938 15.039062 30.589844 15.039062 30.375 15.09375 M 26.46875 15.71875 C 26.566406 15.753906 26.480469 15.855469 26.308594 15.910156 C 26.179688 15.949219 26.167969 15.902344 26.28125 15.78125 C 26.378906 15.675781 26.367188 15.679688 26.46875 15.71875 M 26.238281 16.699219 C 26.117188 16.789062 26.128906 16.816406 26.273438 16.789062 C 26.339844 16.777344 26.40625 16.738281 26.421875 16.699219 C 26.453125 16.613281 26.351562 16.613281 26.238281 16.699219 M 33.351562 17.378906 C 33.351562 17.40625 33.484375 17.570312 33.644531 17.734375 C 34.03125 18.128906 34.574219 18.832031 34.859375 19.304688 C 35.132812 19.746094 35.601562 20.644531 35.601562 20.71875 C 35.601562 20.871094 35.789062 20.945312 35.894531 20.839844 C 36.191406 20.550781 35.875 19.390625 35.292969 18.621094 C 34.8125 17.988281 33.351562 17.050781 33.351562 17.378906 M 21.582031 21.769531 C 21.527344 21.84375 21.4375 21.929688 21.382812 21.953125 C 21.246094 22.011719 21.222656 22.058594 20.75 23.28125 C 20.277344 24.503906 20.230469 24.695312 20.410156 24.695312 C 20.597656 24.695312 20.703125 24.542969 20.734375 24.230469 C 20.761719 23.972656 20.769531 23.960938 20.835938 24.050781 C 20.945312 24.207031 21.027344 24.171875 21.140625 23.9375 C 21.199219 23.816406 21.28125 23.707031 21.320312 23.691406 C 21.457031 23.636719 21.601562 23.347656 21.601562 23.117188 C 21.601562 22.84375 21.457031 22.933594 21.320312 23.292969 C 21.273438 23.414062 21.203125 23.507812 21.160156 23.507812 C 21.007812 23.507812 21.15625 23.070312 21.703125 21.890625 C 21.84375 21.582031 21.761719 21.5 21.582031 21.769531 M 22.28125 21.902344 C 22.265625 21.941406 22.21875 21.976562 22.179688 21.976562 C 22.132812 21.976562 22.078125 22.078125 22.027344 22.242188 C 21.941406 22.535156 21.925781 22.765625 21.992188 22.765625 C 22.042969 22.765625 22.398438 22.023438 22.398438 21.914062 C 22.398438 21.808594 22.320312 21.796875 22.28125 21.902344 M 22.050781 24.699219 C 22.050781 24.78125 22.070312 24.945312 22.097656 25.058594 C 22.125 25.171875 22.183594 25.464844 22.226562 25.710938 C 22.386719 26.570312 22.703125 27.789062 22.957031 28.53125 C 23.085938 28.898438 23.414062 29.554688 23.964844 30.546875 C 24.683594 31.828125 24.734375 31.96875 24.480469 31.902344 C 24.171875 31.828125 22.945312 29.660156 22.605469 28.597656 C 22.171875 27.238281 21.769531 24.546875 22 24.546875 C 22.027344 24.546875 22.050781 24.617188 22.050781 24.699219 M 19.949219 24.695312 C 19.949219 24.75 19.972656 24.796875 20 24.796875 C 20.027344 24.796875 20.050781 24.75 20.050781 24.695312 C 20.050781 24.640625 20.027344 24.597656 20 24.597656 C 19.972656 24.597656 19.949219 24.640625 19.949219 24.695312 M 21.199219 24.796875 C 21.199219 24.851562 21.234375 24.894531 21.273438 24.894531 C 21.316406 24.894531 21.351562 24.851562 21.351562 24.796875 C 21.351562 24.742188 21.316406 24.695312 21.273438 24.695312 C 21.234375 24.695312 21.199219 24.742188 21.199219 24.796875 M 19.257812 26.0625 C 18.890625 26.363281 18.085938 27.542969 17.910156 28.03125 C 17.613281 28.855469 17.660156 30.484375 18.007812 31.34375 C 18.167969 31.738281 18.21875 31.183594 18.074219 30.625 C 17.816406 29.625 18.410156 27.496094 19.3125 26.191406 C 19.488281 25.933594 19.46875 25.882812 19.257812 26.0625 M 36.226562 26.425781 C 36.171875 26.511719 36.457031 26.675781 36.660156 26.675781 C 36.976562 26.675781 37.191406 26.492188 36.972656 26.410156 C 36.847656 26.363281 36.257812 26.375 36.226562 26.425781 M 23.300781 27.566406 C 23.300781 27.644531 23.324219 27.722656 23.351562 27.742188 C 23.378906 27.757812 23.398438 27.800781 23.398438 27.835938 C 23.398438 27.96875 23.78125 28.582031 24.050781 28.878906 C 24.203125 29.046875 24.613281 29.511719 24.96875 29.910156 C 25.636719 30.664062 26.8125 31.765625 27.109375 31.914062 C 27.519531 32.121094 29.054688 33.507812 28.871094 33.507812 C 28.773438 33.507812 27.65625 32.625 27.140625 32.140625 C 27.011719 32.019531 26.84375 31.898438 26.765625 31.871094 C 26.59375 31.8125 25.167969 30.394531 24.492188 29.609375 C 23.664062 28.65625 22.964844 27.417969 23.25 27.417969 C 23.277344 27.417969 23.300781 27.484375 23.300781 27.566406 M 20.683594 29.695312 C 20.695312 29.84375 20.726562 30.011719 20.746094 30.066406 C 20.769531 30.121094 20.847656 30.367188 20.925781 30.613281 C 21.171875 31.40625 21.65625 32.378906 21.992188 32.753906 C 22.4375 33.246094 21.878906 31.597656 21.179688 30.363281 C 20.964844 29.984375 20.773438 29.660156 20.75 29.644531 C 20.730469 29.632812 20.699219 29.578125 20.683594 29.523438 C 20.671875 29.46875 20.667969 29.546875 20.683594 29.695312 M 35.527344 30.160156 C 35.390625 30.257812 35.460938 30.386719 35.648438 30.386719 C 35.835938 30.386719 35.910156 30.257812 35.773438 30.160156 C 35.722656 30.121094 35.667969 30.089844 35.648438 30.089844 C 35.632812 30.089844 35.578125 30.121094 35.527344 30.160156 M 35.28125 32.058594 C 35.148438 32.089844 34.507812 32.480469 34.300781 32.65625 C 34.0625 32.859375 34.132812 32.894531 34.5625 32.796875 C 35.238281 32.640625 35.625 32.695312 35.898438 32.988281 C 36.234375 33.339844 36.527344 33.292969 36.621094 32.867188 C 36.757812 32.242188 36.101562 31.847656 35.28125 32.058594 "/>
</g>
</svg>
